<?xml version="1.0" encoding="utf-8"?>
<!-- Generator: Adobe Illustrator 16.0.0, SVG Export Plug-In . SVG Version: 6.00 Build 0)  -->
<!DOCTYPE svg PUBLIC "-//W3C//DTD SVG 1.1//EN" "http://www.w3.org/Graphics/SVG/1.1/DTD/svg11.dtd">
<svg version="1.1" xmlns="http://www.w3.org/2000/svg" xmlns:xlink="http://www.w3.org/1999/xlink" x="0px" y="0px"  viewBox="0 0 315 207" enable-background="new 0 0 315 207" xml:space="preserve">
	 <script xlink:href="https://cdnjs.cloudflare.com/ajax/libs/snap.svg/0.4.1/snap.svg.js" />

<g id="Layer_1">
	<script  xlink:href="https://cdnjs.cloudflare.com/ajax/libs/snap.svg/0.4.1/snap.svg.js"></script>
	<g id="Layer_1_3_">
		<g id="Layer_2_2_">
		</g>
		<g id="Layer_1_2_">
			<g id="Layer_1_1_" display="none">
				<g display="inline">
					<g id="Layer_3">
						<path id="vecmap" fill="#FF0000" stroke="#000000" stroke-miterlimit="10" d="M190.422-45.235
							c115.73,0,209.545,93.813,209.545,209.542c0,20.131-2.842,39.605-8.145,58.031c-2.871,9.98-6.465,19.66-10.719,28.971
							C348.06,323.611,275.107,373.846,190.418,373.85c-89.402,0-165.729-55.996-195.828-134.822
							c-2.083-5.457-3.939-11.021-5.571-16.686c-5.3-18.43-8.142-37.902-8.142-58.035C-19.121,48.58,74.695-45.235,190.422-45.235z"
							/>
					</g>
					<g display="none">
						
							<line display="inline" fill="none" stroke="#000000" stroke-width="3" stroke-miterlimit="10" x1="377.771" y1="249.352" x2="-1.138" y2="249.352"/>
					</g>
					<g display="none">
						
							<line display="inline" fill="none" stroke="#000000" stroke-width="3" stroke-miterlimit="10" x1="399.941" y1="166.951" x2="-19.098" y2="166.951"/>
					</g>
					<g>
						<path d="M159.906,138.029l-9.922,26.229h-3.341l-8.275-21.492l-8.278,21.492h-3.341l-9.874-26.229h3.394l8.229,22.291
							l8.428-22.291h3.042l8.377,22.291l8.328-22.291H159.906z"/>
					</g>
					<g>
						<path d="M115.077,138.078l-9.924,26.229h-3.341l-8.278-21.492l-8.278,21.492h-3.339l-9.875-26.229h3.394l8.228,22.291
							l8.428-22.291h3.042l8.38,22.291l8.326-22.291H115.077z"/>
					</g>
					<g>
						<path d="M70.058,138.078l-9.926,26.229h-3.341l-8.276-21.492l-8.278,21.492h-3.341l-9.874-26.229h3.392l8.229,22.291
							l8.427-22.291h3.042l8.38,22.291l8.326-22.291H70.058z"/>
					</g>
					<g>
						<path d="M160.246,163.76c-0.516-0.535-0.77-1.182-0.77-1.947c0-0.768,0.256-1.402,0.77-1.92
							c0.516-0.518,1.139-0.771,1.871-0.771c0.73,0,1.361,0.256,1.891,0.771c0.535,0.516,0.801,1.154,0.801,1.92
							s-0.268,1.414-0.801,1.947c-0.529,0.529-1.164,0.795-1.891,0.795C161.383,164.557,160.761,164.291,160.246,163.76z"/>
					</g>
					<g>
						<path d="M204.545,150.244c0.447-1.025,1.006-1.912,1.672-2.643c0.664-0.732,1.527-1.563,2.594-2.496
							c1.43-1.26,2.482-2.367,3.166-3.314c0.68-0.943,1.021-2.102,1.021-3.463c0-1.832-0.715-3.303-2.146-4.414
							s-3.393-1.67-5.885-1.67c-4.123,0-7.299,1.344-9.523,4.039l-2.645-1.994c2.826-3.459,6.967-5.188,12.416-5.188
							c3.492,0,6.277,0.781,8.355,2.344s3.117,3.674,3.117,6.334c0,1.363-0.229,2.566-0.68,3.615
							c-0.443,1.047-0.992,1.938-1.645,2.668c-0.648,0.729-1.506,1.578-2.568,2.543c-1.43,1.297-2.494,2.453-3.188,3.467
							c-0.699,1.014-1.051,2.27-1.051,3.766h-3.688C203.875,152.471,204.095,151.275,204.545,150.244z M203.875,163.781
							c-0.502-0.514-0.748-1.119-0.748-1.82c0-0.729,0.246-1.338,0.748-1.818c0.498-0.479,1.109-0.725,1.844-0.725
							c0.768,0,1.396,0.244,1.896,0.725c0.498,0.482,0.748,1.09,0.748,1.818c0,0.701-0.258,1.309-0.773,1.82
							c-0.516,0.516-1.139,0.773-1.867,0.773C204.984,164.557,204.371,164.297,203.875,163.781z"/>
					</g>
					<g>
						<path d="M233.289,150.244c0.447-1.025,1.004-1.912,1.67-2.643c0.664-0.732,1.529-1.563,2.594-2.496
							c1.432-1.26,2.484-2.367,3.164-3.314c0.684-0.943,1.023-2.102,1.023-3.463c0-1.832-0.715-3.303-2.146-4.414
							c-1.428-1.111-3.391-1.67-5.881-1.67c-4.123,0-7.299,1.344-9.523,4.039l-2.645-1.994c2.824-3.459,6.965-5.188,12.416-5.188
							c3.492,0,6.277,0.781,8.355,2.344s3.117,3.674,3.117,6.334c0,1.363-0.229,2.566-0.68,3.615
							c-0.443,1.047-0.994,1.938-1.645,2.668c-0.648,0.729-1.506,1.578-2.568,2.543c-1.428,1.297-2.494,2.453-3.188,3.467
							c-0.699,1.014-1.055,2.27-1.055,3.766h-3.688C232.617,152.471,232.84,151.275,233.289,150.244z M232.617,163.781
							c-0.5-0.514-0.748-1.119-0.748-1.82c0-0.729,0.248-1.338,0.748-1.818c0.5-0.479,1.111-0.725,1.844-0.725
							c0.77,0,1.398,0.244,1.896,0.725c0.498,0.482,0.748,1.09,0.748,1.818c0,0.701-0.262,1.309-0.773,1.82
							c-0.516,0.516-1.139,0.773-1.869,0.773C233.728,164.557,233.113,164.297,232.617,163.781z"/>
					</g>
					<g display="none">
						<path id="vecmap_1_" display="inline" d="M178.226,150.244c0.445-1.025,1.006-1.912,1.67-2.643
							c0.666-0.732,1.527-1.563,2.594-2.496c1.428-1.26,2.484-2.367,3.164-3.314c0.68-0.943,1.021-2.102,1.021-3.463
							c0-1.832-0.715-3.303-2.145-4.414s-3.391-1.67-5.883-1.67c-4.123,0-7.299,1.344-9.525,4.039l-2.643-1.994
							c2.822-3.459,6.963-5.188,12.416-5.188c3.488,0,6.275,0.781,8.354,2.344s3.117,3.674,3.117,6.334
							c0,1.363-0.225,2.566-0.676,3.615c-0.447,1.047-0.996,1.938-1.646,2.668c-0.645,0.729-1.502,1.578-2.564,2.543
							c-1.432,1.297-2.494,2.453-3.189,3.467c-0.699,1.014-1.049,2.27-1.049,3.766h-3.689
							C177.554,152.471,177.777,151.275,178.226,150.244z M177.554,163.781c-0.5-0.514-0.744-1.119-0.744-1.82
							c0-0.729,0.244-1.338,0.744-1.818c0.5-0.479,1.111-0.725,1.846-0.725c0.766,0,1.396,0.244,1.895,0.725
							c0.5,0.482,0.748,1.09,0.748,1.818c0,0.701-0.258,1.309-0.77,1.82c-0.518,0.516-1.143,0.773-1.869,0.773
							C178.668,164.555,178.052,164.297,177.554,163.781z"/>
					</g>
					<g display="none">
						<path display="inline" d="M254.439,163.76c-0.518-0.535-0.771-1.182-0.771-1.947c0-0.768,0.256-1.402,0.771-1.92
							s1.139-0.771,1.871-0.771c0.729,0,1.359,0.256,1.893,0.771s0.797,1.154,0.797,1.92s-0.266,1.414-0.797,1.947
							c-0.533,0.529-1.164,0.795-1.893,0.795C255.578,164.557,254.957,164.291,254.439,163.76z"/>
					</g>
					<g display="none">
						<path display="inline" d="M268.879,162.859c-2.043-1.129-3.645-2.719-4.811-4.762c-1.164-2.043-1.746-4.346-1.746-6.908
							c0-2.561,0.582-4.854,1.746-6.881c1.166-2.027,2.768-3.605,4.811-4.736c2.047-1.129,4.363-1.695,6.957-1.695
							c2.268,0,4.283,0.441,6.063,1.322c1.775,0.879,3.184,2.168,4.215,3.861l-2.645,1.799c-0.861-1.299-1.961-2.271-3.291-2.922
							c-1.332-0.646-2.775-0.969-4.342-0.969c-1.893,0-3.6,0.422-5.109,1.271c-1.514,0.848-2.691,2.053-3.539,3.615
							c-0.852,1.563-1.271,3.342-1.271,5.334c0,2.029,0.424,3.814,1.271,5.361c0.85,1.543,2.027,2.742,3.539,3.59
							c1.514,0.852,3.219,1.271,5.109,1.271c1.564,0,3.01-0.314,4.342-0.947c1.33-0.629,2.43-1.596,3.291-2.893l2.645,1.795
							c-1.031,1.695-2.441,2.986-4.24,3.865c-1.795,0.881-3.807,1.322-6.033,1.322C273.242,164.557,270.926,163.992,268.879,162.859
							z"/>
					</g>
					<g display="none">
						<path display="inline" d="M298.662,162.859c-2.045-1.129-3.646-2.719-4.813-4.762c-1.164-2.043-1.746-4.346-1.746-6.908
							c0-2.561,0.582-4.854,1.746-6.881c1.166-2.027,2.768-3.605,4.813-4.736c2.045-1.129,4.363-1.695,6.957-1.695
							c2.266,0,4.281,0.441,6.063,1.322c1.773,0.879,3.182,2.168,4.213,3.861l-2.645,1.799c-0.861-1.299-1.961-2.271-3.291-2.922
							c-1.332-0.646-2.775-0.969-4.34-0.969c-1.893,0-3.6,0.422-5.109,1.271c-1.516,0.848-2.691,2.053-3.541,3.615
							s-1.271,3.342-1.271,5.334c0,2.029,0.424,3.814,1.271,5.361c0.852,1.543,2.027,2.742,3.541,3.59
							c1.514,0.852,3.219,1.271,5.109,1.271c1.563,0,3.008-0.314,4.34-0.947c1.33-0.629,2.43-1.596,3.291-2.893l2.645,1.795
							c-1.031,1.695-2.441,2.986-4.238,3.865c-1.797,0.881-3.809,1.322-6.035,1.322
							C303.025,164.557,300.707,163.992,298.662,162.859z"/>
					</g>
					<g display="none">
						<path display="inline" d="M327.75,162.859c-2.043-1.129-3.645-2.719-4.811-4.762c-1.164-2.043-1.746-4.346-1.746-6.908
							c0-2.561,0.582-4.854,1.746-6.881c1.166-2.027,2.768-3.605,4.811-4.736c2.047-1.129,4.365-1.695,6.957-1.695
							c2.268,0,4.283,0.441,6.063,1.322c1.779,0.879,3.184,2.168,4.213,3.861l-2.639,1.799c-0.865-1.299-1.965-2.271-3.291-2.922
							c-1.334-0.646-2.779-0.969-4.346-0.969c-1.891,0-3.6,0.422-5.107,1.271c-1.516,0.848-2.693,2.053-3.541,3.615
							c-0.852,1.563-1.271,3.342-1.271,5.334c0,2.029,0.424,3.814,1.271,5.361c0.852,1.543,2.027,2.742,3.541,3.59
							c1.514,0.852,3.217,1.271,5.107,1.271c1.564,0,3.012-0.314,4.346-0.947c1.326-0.629,2.426-1.596,3.291-2.893l2.639,1.795
							c-1.029,1.695-2.439,2.986-4.238,3.865c-1.795,0.881-3.807,1.322-6.033,1.322C332.115,164.557,329.797,163.992,327.75,162.859
							z"/>
					</g>
				</g>
				<g display="inline">
					<path d="M17.616,123.49h3.291v46.678h-3.291V123.49z"/>
				</g>
				<div  class="typewriter">
					
						<text  transform="matrix(1 0 0 1 264.0769 578.5002)" font-family="&apos;Montserrat-Regular&apos;" font-size="72" startOffset="0">
						www.???.com</text>
				</div>
			</g>
			<g id="Layer_2" display="none">
				<g display="inline">
					<path fill="#FFFFFF" stroke="#DDDDDD" stroke-miterlimit="10" d="M173.64,138.889c1.125-0.162,2.281-0.273,3.514-0.273
						c1.139,0,2.213,0.098,3.254,0.238c0.484-0.068,0.977-0.113,1.482-0.148c-6.832-7.619-15.105-13.354-24.855-17.152
						c-9.948-3.875-22.99-7.805-39.121-11.783c-13.617-3.352-24.459-6.442-32.521-9.27c-8.063-2.828-14.771-6.912-20.107-12.254
						c-5.345-5.342-8.011-12.414-8.011-21.209c0-11.729,4.866-21.313,14.607-28.753c9.741-7.433,24.241-11.154,43.522-11.154
						c10.049,0,20.312,1.521,30.792,4.558c10.471,3.039,20.314,7.595,29.537,13.668l7.854-18.54
						c-8.797-6.074-19.221-10.839-31.266-14.297c-12.045-3.456-24.354-5.187-36.917-5.187c-18.021,0-33.106,2.729-45.253,8.17
						C58.005,20.95,48.995,28.229,43.129,37.338c-5.861,9.113-8.798,19.223-8.798,30.324c0,13.621,3.506,24.406,10.528,32.365
						c7.016,7.963,15.447,13.879,25.292,17.756c9.844,3.877,23.043,7.91,39.592,12.096c13.827,3.355,24.618,6.443,32.365,9.271
						c4.645,1.688,8.711,3.965,12.462,6.555c3.515-4.234,8.853-7.086,16.037-7.086C171.679,138.615,172.652,138.76,173.64,138.889z"
						/>
				</g>
				
					<text transform="matrix(1 0 0 1 63.3298 175.2422)" display="inline" fill="#FFFFFF" font-family="'Montserrat-Regular'" font-size="49.8676">D</text>
				<g display="inline">
					<path fill="#FFFFFF" stroke="#DDDDDD" stroke-miterlimit="10" d="M124.236,118.32h89.551c23.252,0,43.781,4.666,61.588,13.984
						c17.805,9.32,31.629,22.309,41.482,38.963c9.84,16.65,14.762,35.664,14.762,57.029c0,21.363-4.922,40.375-14.762,57.029
						c-9.854,16.652-23.678,29.645-41.482,38.963c-17.807,9.324-38.336,13.984-61.588,13.984h-89.551V118.32L124.236,118.32z
						 M212.535,318.17c19.266,0,36.133-3.82,50.588-11.471c14.457-7.646,25.656-18.229,33.617-31.734
						c7.963-13.512,11.943-29.066,11.943-46.662c0-17.602-3.98-33.15-11.943-46.666c-7.961-13.512-19.16-24.082-33.617-31.732
						c-14.455-7.646-31.322-11.471-50.588-11.471H147.49v179.738L212.535,318.17L212.535,318.17z"/>
				</g>
				<path display="inline" fill="#FFFFFF" stroke="#DDDDDD" stroke-miterlimit="10" d="M120.418,117.164"/>
			</g>
			<path fill="#FFFFFF" stroke="#000000" stroke-width="6" stroke-miterlimit="10" d="M222.224,188.719"/>
			<path fill="#FFFFFF" stroke="#000000" stroke-miterlimit="10" d="M86.415,110.035c0,0-20.778-22.853-40.634-6.809"/>
			<path fill="#FFFFFF" stroke="#000000" stroke-width="4" stroke-miterlimit="10" d="M87.281,136.814
				c0,0-20.029-18.406-23.722-11.973c-3.694,6.434-35.558,27.213-47.101-3.264c0,0-11.082-38.786,25.396-54.022l0.923,8.466
				c0,0-9.722,25.595,8.299,22.878c0,0,17.097-13.799,43.877-1.794"/>
		</g>
		<g id="Layer_2_1_">
			<path fill="#FFFFFF" d="M217.779,75.175c0,0,13.857,27.537,15.646,27.162c1.787-0.373,25.076-6.617,40.73,16.219
				c0,0,22.736-51.044,14.979-58.542c0,0-10.727-23.627-22.74-26.938l-8.123,7.816c0,0,15.85,11.945,8.479,10.534v10.819
				l-2.543,4.56l8.287,6.46l-3.115,2.551c0,0-27.75-28.73-49-0.641H217.779L217.779,75.175z"/>
			<path fill="#FFFFFF" d="M233.629,118.557v16.748c0,0,14,5.732,14.625,9.473c0,0,14.281,19.545,15.953,17.393
				c0,0,12.951,5.314,17.979,2.217c0,0,9.535-3.371,8.115-16.871l8.68,0.744c0,0,1.416-17.078-6.217-21.285l-11.098-14.006
				c0,0,4.334,13.359-0.227,11.453l-7.283,15.844c0,0-15.051-26.539-35.713-23.305C217.779,120.197,233.629,118.557,233.629,118.557
				z"/>
			<path fill="#FFFFFF" d="M233.629,118.557v16.748c0,0,14,5.732,14.625,9.473c0,0,14.281,19.545,15.953,17.393
				c0,0,12.951,5.314,17.979,2.217c0,0,9.535-3.371,8.115-16.871l8.68,0.744c0,0,1.416-17.078-6.217-21.285l-11.098-14.006
				c0,0,4.334,13.359-0.227,11.453l-7.283,15.844c0,0-15.051-26.539-35.713-23.305C217.779,120.197,233.629,118.557,233.629,118.557
				z"/>
			<path fill="#FFFFFF" stroke="#FFFFFF" stroke-miterlimit="10" d="M80.083,141.588c0,0,147.997,11.107,152.479,22.227v15.482
				c0,0-16.021,24.111-44.104,9.707c0,0-42.592,15.467-53.836-3.469c0,0-20.593,20.457-52.752-6.238L80.083,141.588z"/>
			<g id="Layer_4">
				<path fill="#FFFFFF" stroke="#FCFCFC" stroke-width="2" stroke-miterlimit="10" d="M46.762,39.133
					c0,0-0.792-32.697,47.041-33.79c0,0,6.153-5.445,22.123,3.614c0,0-29.277,13.001-30.895,13.227
					c-1.617,0.224-3.35,13.341-5.568,13.7C77.244,36.242,46.762,39.133,46.762,39.133z"/>
			</g>
			<path fill="#FFFFFF" stroke="#FCFCFC" stroke-width="2" stroke-miterlimit="10" d="M92.998,94.421c0,0-19.228-4.834-20.584-3.834
				c-1.354,1-24.932-17.385-25.651-51.452l34.261-3.249c0,0,12.936,33.744,31.143,31.889L92.998,94.421z"/>
			<path fill="#FFFFFF" stroke="#000000" stroke-width="6" stroke-miterlimit="10" d="M90.037,138.33
				c-1.008-4.799-1.537-9.773-1.537-14.873c0-39.78,32.249-72.03,72.031-72.03c39.781,0,72.031,32.25,72.031,72.03
				c0,13.289-3.602,25.738-9.875,36.428"/>
			<path fill="#FFFFFF" stroke="#000000" stroke-width="6" stroke-miterlimit="10" d="M88.5,137.748"/>
			<path fill="#FFFFFF" stroke="#000000" stroke-width="6" stroke-miterlimit="10" d="M98.804,160.602"/>
			<path fill="#FFFFFF" stroke="#000000" stroke-width="6" stroke-miterlimit="10" d="M191.054,188.719
				c-9.268,4.342-19.609,6.77-30.52,6.77c-10.022,0-19.564-2.047-28.234-5.744"/>
			<path display="none" fill="#FFFFFF" stroke="#000000" stroke-miterlimit="10" d="M132.588,125.867
				c0,0-18.008-54.515-61.642-23.348c0,0-27.704,46.403-53.331,13.161c0,0-12.467-47.1,37.4-54.024c0,0,28.396-18.006-17.315-29.088
				c0,0,79.65-0.472,30.475,47.555"/>
			<path display="none" fill="none" stroke="#000000" stroke-miterlimit="10" d="M41.165,94.902c0,0,31.167-76.66,109.431-20.322"/>
			
				<ellipse id="eli" fill="#FFFFFF" stroke="#000000" stroke-width="5" stroke-miterlimit="10" cx="149.677" cy="103.226" rx="10.854" ry="16.969"/>
			<path fill="#FFFFFF" stroke="#000000" stroke-width="5" stroke-miterlimit="10" d="M154.06,80.025
				c0,0,19.393,1.385,16.622,23.201"/>
			<path display="none" fill="none" stroke="#000000" stroke-width="4" stroke-miterlimit="10" d="M115.39,48.496
				c0,0-36.824,36.709-63.146,0"/>
			<path display="none" fill="none" stroke="#000000" stroke-width="4" stroke-miterlimit="10" d="M59.865,4.17
				c0,0,36.015,26.608-7.619,36.508"/>
			<g display="none">
				<g display="inline">
					<path fill="none" stroke="#000000" stroke-width="4" stroke-miterlimit="10" d="M248.254,22.421
						c-29.779-29.534-54.715,0-54.715,0"/>
					<path fill="none" stroke="#000000" stroke-width="4" stroke-miterlimit="10" d="M232.562,48.496c0,0,28.156,28.397,51.016,0"/>
					<path fill="none" stroke="#000000" stroke-width="4" stroke-miterlimit="10" d="M280.113,3.477
						c0,0-28.396,28.888-31.859,18.253"/>
					<path fill="none" stroke="#000000" stroke-width="4" stroke-miterlimit="10" d="M287.039,8.325c0,0,1.332,30.935-3.461,40.17"
						/>
					<path fill="none" stroke="#000000" stroke-width="4" stroke-miterlimit="10" d="M235.326,54.807c0,0-2.77,16.41-9.236,18.671"
						/>
					<path fill="none" stroke="#000000" stroke-width="4" stroke-miterlimit="10" d="M293.685,119.297l-1.521,1.242l14.572-2.178
						c0,0-12.43,15.984-15.77,16.273"/>
					<path fill="none" stroke="#000000" stroke-width="4" stroke-miterlimit="10" d="M209.33,29.681c0,0-24.738,5.078-27.936,11.354
						"/>
				</g>
				<g display="inline">
					<path fill="none" stroke="#000000" stroke-width="4" stroke-miterlimit="10" d="M248.254,22.421
						c-29.779-29.534-54.715,0-54.715,0"/>
					<path fill="none" stroke="#000000" stroke-width="4" stroke-miterlimit="10" d="M232.562,48.496c0,0,28.156,28.397,51.016,0"/>
					<path fill="none" stroke="#000000" stroke-width="4" stroke-miterlimit="10" d="M280.113,3.477
						c0,0-28.396,28.888-31.859,18.253"/>
					<path fill="none" stroke="#000000" stroke-width="4" stroke-miterlimit="10" d="M287.039,8.325c0,0,1.332,30.935-3.461,40.17"
						/>
					<path fill="none" stroke="#000000" stroke-width="4" stroke-miterlimit="10" d="M235.326,54.807c0,0-2.77,16.41-9.236,18.671"
						/>
					<path fill="none" stroke="#000000" stroke-width="4" stroke-miterlimit="10" d="M293.685,119.297l-1.521,1.242l14.572-2.178
						c0,0-12.43,15.984-15.77,16.273"/>
					<path fill="none" stroke="#000000" stroke-width="4" stroke-miterlimit="10" d="M209.33,29.681c0,0-24.738,5.078-27.936,11.354
						"/>
				</g>
			</g>
			<path fill="#FFFFFF" stroke="#000000" stroke-width="5" stroke-miterlimit="10" d="M197.002,149.283c0,0,26.318-34.629,55.408,0
				c0,0,15.576,27.242,34.799,12.006c0,0,9.066-14.314-7.096-25.396c0,0,57.719,26.781,17.547,57.717
				c0,0-36.939,15.699-62.334-16.623c0,0-8.313-12.006,0-15.238"/>
			<path fill="none" stroke="#000000" stroke-width="5" stroke-miterlimit="10" d="M235.326,179.297c0,0-28.629,33.244-54.023,2.771
				"/>
			<path fill="none" stroke="#000000" stroke-width="5" stroke-miterlimit="10" d="M235.326,179.297c0,0-28.629,33.244-54.023,2.771
				"/>
			<path fill="#FFFFFF" stroke="#000000" stroke-width="5" stroke-miterlimit="10" d="M83.692,135.959
				c-5.426,2.211-11.156,6.371-16.997,13.324c0,0-15.577,27.242-34.8,12.006c0,0-9.065-14.314,7.095-25.396
				c0,0-57.717,26.781-17.545,57.717c0,0,36.938,15.699,62.334-16.623c0,0,8.311-12.006,0-15.238"/>
			<path fill="#FFFFFF" stroke="#000000" stroke-width="5" stroke-miterlimit="10" d="M122.103,149.283
				c0,0-16.813-22.119-38.412-13.324"/>
			<path fill="none" stroke="#000000" stroke-width="5" stroke-miterlimit="10" d="M130.645,189.004
				c2.396-1.811,4.792-4.098,7.155-6.938"/>
			<path fill="none" stroke="#000000" stroke-width="5" stroke-miterlimit="10" d="M130.646,189.004
				c-23.325,17.631-46.866-9.707-46.866-9.707c0.475,0.51,0.949,1.004,1.422,1.484c24.858,25.154,47.741,6.332,47.741,6.332
				c18.896,19.18,58.112,2.77,58.112,2.77c21.342,13.615,43.588-13.977,43.588-13.977"/>
			<path fill="#FFFFFF" d="M81.018,116.961c0,0,12.601,9.846,31.147,0l16.881,39.541c0,0-23.544,2.629-21.271-3.713
				c2.271-6.344-36.406-0.818-31.734-4.729S81.018,116.961,81.018,116.961z"/>
			<g>
				<path fill="#FFFFFF" stroke="#000000" stroke-width="5" stroke-miterlimit="10" d="M82.199,131.967
					c-0.771,10.105-5.415,17.992-10.373,17.613c-4.959-0.377-8.354-8.877-7.582-18.982c0.771-10.107,5.416-17.994,10.375-17.617
					c0.45,0.035,0.888,0.137,1.311,0.301C80.159,114.916,82.902,122.777,82.199,131.967z"/>
				
					<ellipse transform="matrix(0.9971 0.0761 -0.0761 0.9971 10.1678 -5.1447)" fill="#FFFFFF" stroke="#000000" stroke-width="4" stroke-miterlimit="10" cx="72.55" cy="130.764" rx="3.463" ry="6.358"/>
				<path fill="none" stroke="#000000" stroke-width="4" stroke-miterlimit="10" d="M74.589,149.793c0,0,33.679-4.377,33.181,6.699"
					/>
				<path fill="none" stroke="#000000" stroke-width="5" stroke-miterlimit="10" d="M77.46,113.963c0,0,19.97,14.785,26.385,2.471"
					/>
			</g>
			<path fill="none" stroke="#000000" stroke-width="4" stroke-miterlimit="10" d="M217.779,120.195"/>
			
				<ellipse id="eli2" transform="matrix(0.9963 0.0855 -0.0855 0.9963 9.1857 -8.9167)" fill="#FFFFFF" stroke="#000000" stroke-width="5" stroke-miterlimit="10" cx="108.689" cy="102.778" rx="6.579" ry="15.827"/>
			<path fill="none" stroke="#000000" stroke-width="4" stroke-miterlimit="10" d="M272.494,141.588
				c-7.387-25.908-29.244-26.779-42.992-24.48"/>
			<path fill="none" stroke="#000000" stroke-width="4" stroke-miterlimit="10" d="M267.523,194.656"/>
			<path fill="none" stroke="#000000" stroke-width="4" stroke-miterlimit="10" d="M271.802,139.775c0,0,22.166-16.684,0-36
				c0,0,28.102,21.975,29.27,46.397"/>
			<path fill="none" stroke="#000000" stroke-width="4" stroke-miterlimit="10" d="M248.254,190.719c0,0-6.691,5.572-19.623-3.387"
				/>
			<path fill="none" stroke="#000000" stroke-width="4" stroke-miterlimit="10" d="M274.156,121.582
				c-11.209-24.502-32.945-22.066-46.191-17.725"/>
			<g>
				<path fill="none" stroke="#000000" stroke-width="4" stroke-miterlimit="10" d="M217.086,75.175c0,0,24.938-29.092,54.023,0"/>
				<path fill="none" stroke="#000000" stroke-width="4" stroke-miterlimit="10" d="M266.394,50.328
					c-0.078,8-3.598,14.69-3.598,14.689"/>
				<path fill="none" stroke="#000000" stroke-width="4" stroke-miterlimit="10" d="M266.394,50.328"/>
				<path fill="none" stroke="#000000" stroke-width="4" stroke-miterlimit="10" d="M261.326,35.674
					c0.311,0.36,0.602,0.727,0.881,1.096"/>
				<path fill="none" stroke="#000000" stroke-width="4" stroke-miterlimit="10" d="M280.806,103.841
					c22.771-45.357-0.537-63.993-16.6-71.098"/>
			</g>
			<path display="none" fill="none" stroke="#000000" stroke-width="4" stroke-miterlimit="10" d="M278.728,90.255
				c0,0-5.641,8.892-24.289,9.191"/>
			<path display="none" fill="none" stroke="#000000" stroke-width="4" stroke-miterlimit="10" d="M237.75,86.765
				c0,0,11.633-9.65,21.586,3.557"/>
			<path fill="none" stroke="#000000" stroke-width="4" stroke-miterlimit="10" d="M261.006,105.654"/>
			<g display="none">
				<path display="inline" fill="none" stroke="#000000" stroke-width="4" stroke-miterlimit="10" d="M112.3,56.807
					c0,0-24.934-29.089-54.021,0"/>
				<path display="inline" fill="none" stroke="#000000" stroke-width="4" stroke-miterlimit="10" d="M48.58,85.472
					C16.029,20.636,77.634,10.403,77.634,10.403C53.358,21.485,66.589,46.65,66.589,46.65"/>
			</g>
			<path fill="none" stroke="#000000" stroke-width="4" stroke-miterlimit="10" d="M72.119,92.224
				c-12.979-9.479-25.303-25.296-26.106-51.333"/>
			<path fill="none" stroke="#000000" stroke-width="4" stroke-miterlimit="10" d="M72.119,92.224"/>
			<path fill="none" stroke="#000000" stroke-width="4" stroke-miterlimit="10" d="M102.959,105.654c0,0-0.992-0.154-2.712-0.561"/>
			<path fill="none" stroke="#000000" stroke-width="4" stroke-miterlimit="10" d="M115.98,13.794
				c-6.589-0.38-14.506,0.045-16.751,3.896c0,0-30.576,3.752-10.729,33.736"/>
			<path fill="none" stroke="#000000" stroke-width="4" stroke-miterlimit="10" d="M117.273,7.623
				c0.434,0.227,0.861,0.462,1.285,0.71"/>
			<path fill="none" stroke="#000000" stroke-width="4" stroke-miterlimit="10" d="M45.781,40.892c0,0-4.682-32.899,44.872-37.057
				c0,0,15.257-2.087,26.619,3.786"/>
			<path fill="none" stroke="#000000" stroke-width="4" stroke-miterlimit="10" d="M88.41,50.734c0,0,10.74,21.25,30.922,14.881"/>
			<path fill="none" stroke="#000000" stroke-width="4" stroke-miterlimit="10" d="M257.258,42.652"/>
			<path fill="none" stroke="#000000" stroke-width="4" stroke-miterlimit="10" d="M258.271,40.694c0,0,6.189,5.196,8.479,9.725"/>
		</g>
		<g id="Layer_3_1_">
			<g>
				
					<ellipse transform="matrix(0.9819 0.1893 -0.1893 0.9819 3.4787 -25.7092)" fill="none" stroke="#000000" stroke-width="4" stroke-miterlimit="10" cx="136.318" cy="5.355" rx="12.007" ry="2.291"/>
				<line fill="none" stroke="#000000" stroke-width="4" stroke-miterlimit="10" x1="124.373" y1="3.135" x2="119.987" y2="26.02"/>
				<line fill="none" stroke="#000000" stroke-width="4" stroke-miterlimit="10" x1="147.95" y1="7.843" x2="143.563" y2="30.727"/>
				
					<line fill="none" stroke="#000000" stroke-width="4" stroke-miterlimit="10" x1="118.432" y1="26.411" x2="144.59" y2="31.634"/>
				<path stroke="#000000" stroke-width="4" stroke-miterlimit="10" d="M125.675,4.693c0,0,5.23,4.432,20.111,4.713l-3.712,19.706
					l-20.813-3.089L125.675,4.693z"/>
				<path fill="none" stroke="#000000" stroke-width="4" stroke-miterlimit="10" d="M122.634,7.833c0,0-4.611-1.494-5.529,2.524"/>
				<polygon fill="none" stroke="#000000" stroke-width="2" stroke-miterlimit="10" points="119.45,10.277 112.403,11.462 
					119.339,16.199 				"/>
				<path fill="none" stroke="#000000" stroke-width="4" stroke-miterlimit="10" d="M116.387,14.118c0,0,0.134,4.849,4.229,4.373"/>
			</g>
			<path stroke="#000000" stroke-width="4" stroke-miterlimit="10" d="M154.039,33.773"/>
			<g display="none">
				<polyline display="inline" fill="none" stroke="#000000" stroke-width="2" stroke-miterlimit="10" points="242.832,35.958 
					236.25,42.943 230.709,56.115 246.64,51.947 264.424,33.076 				"/>
				
					<line display="inline" fill="none" stroke="#000000" stroke-width="2" stroke-miterlimit="10" x1="254.033" y1="24.072" x2="247.777" y2="30.711"/>
				<polyline display="inline" fill="none" stroke="#000000" stroke-width="2" stroke-miterlimit="10" points="236.412,43.875 
					241.39,42.652 239.898,45.443 244.875,44.046 244.875,47.296 247.367,47.296 247.367,49.613 				"/>
				
					<line display="inline" fill="none" stroke="#000000" stroke-width="2" stroke-miterlimit="10" x1="249.654" y1="30.278" x2="249.201" y2="30.74"/>
				<polyline display="inline" fill="#FFFFFF" stroke="#FCFCFC" stroke-width="2" stroke-miterlimit="10" points="242.51,37.563 
					237.519,42.652 243.06,41.208 241.89,43.822 245.697,42.652 245.697,46.13 248.427,46.13 248.427,48.669 263.301,32.554 
					254.56,25.275 249.654,30.278 				"/>
				
					<line display="inline" fill="none" stroke="#000000" stroke-width="2" stroke-miterlimit="10" x1="243.08" y1="36.982" x2="242.51" y2="37.563"/>
				<polygon display="inline" fill="none" stroke="#000000" stroke-width="2" stroke-miterlimit="10" points="264.92,31.818 
					254.787,23.32 261.681,16.538 271.812,25.036 				"/>
				<path display="inline" fill="none" stroke="#000000" stroke-width="2" stroke-miterlimit="10" d="M240.724,33.179
					c0,0,0.096,0.595,0.381,1.461c0.979,2.979,4.197,9.159,13.457,5.378c0,0-9.23-8.543-4.805-11.615"/>
			</g>
			<path display="none" fill="none" stroke="#000000" stroke-width="2" stroke-miterlimit="10" d="M240.724,34.048
				c0,0-3.48-12.663,10.338-7.563"/>
			
				<line display="none" fill="none" stroke="#000000" stroke-width="2" stroke-miterlimit="10" x1="232.562" y1="53.115" x2="234.289" y2="55.178"/>
			<path fill="none" stroke="#000000" stroke-width="2" stroke-miterlimit="10" d="M254.787,24.178"/>
		</g>
		
			<ellipse transform="matrix(-0.7883 -0.6153 0.6153 -0.7883 285.9203 267.9308)" fill="#FFFFFF" stroke="#000000" stroke-width="2" stroke-miterlimit="10" cx="189.052" cy="84.778" rx="16.439" ry="10.549"/>
		
			<ellipse transform="matrix(0.4898 -0.8718 0.8718 0.4898 39.59 205.9035)" fill="#FFFFFF" stroke="#000000" stroke-width="2" stroke-miterlimit="10" cx="195.724" cy="69.125" rx="2.568" ry="4.662"/>
		
			<ellipse transform="matrix(0.734 -0.6791 0.6791 0.734 0.839 162.3765)" fill="#FFFFFF" stroke="#000000" stroke-width="2" stroke-miterlimit="10" cx="207.718" cy="80.117" rx="3.798" ry="6.896"/>
	</g>
	<g id="Layer_3_2_">
	</g>
	
</g>
<g id="Layer_2_3_">
	<circle cx="41.139" cy="71.178" r="7.349"/>
	<g>
		<path d="M41.139,88.015c-10.322,0-19.34-1.215-26.089-3.528c-4.377-1.493-8.096-3.484-10.746-5.753
			C1.493,76.332,0,73.712,0,71.179c0-4.86,5.329-9.619,14.274-12.723c7.32-2.547,16.865-3.967,26.85-3.967
			c9.81,0,19.224,1.376,26.499,3.894c4.261,1.464,7.848,3.367,10.395,5.476c2.768,2.313,4.231,4.846,4.231,7.32
			c0,5.051-5.959,10.16-15.563,13.337C59.893,86.771,50.816,88.015,41.139,88.015z M41.139,58.002
			c-9.473,0-18.843,1.376-25.694,3.763c-8.228,2.87-11.917,6.793-11.917,9.414c0,2.723,3.967,7.012,12.664,9.984
			c6.383,2.182,15.021,3.338,24.947,3.338c9.311,0,17.992-1.171,24.448-3.323c9.033-3.001,13.162-7.291,13.162-9.999
			c0-1.391-1.055-3.031-2.972-4.626c-2.211-1.845-5.432-3.529-9.282-4.861C59.571,59.32,50.567,58.002,41.139,58.002z"/>
	</g>
	<g>
		<path d="M24.464,107.809c-1.493,0-2.811-0.322-3.923-0.967c-4.202-2.43-5.666-9.429-3.895-18.725
			c1.45-7.628,4.992-16.588,9.984-25.24c4.905-8.491,10.79-15.958,16.602-21.009c3.396-2.958,6.838-5.124,9.94-6.266
			c3.383-1.244,6.311-1.244,8.448-0.015c4.377,2.518,5.827,10.248,3.777,20.145c-1.449,7.027-4.905,15.504-9.736,23.893
			c-5.153,8.931-10.717,16.134-16.089,20.833c-3.484,3.045-7.071,5.271-10.351,6.428C27.509,107.501,25.898,107.809,24.464,107.809z
			 M28.138,63.756l1.522,0.879c-4.729,8.198-8.228,16.997-9.575,24.142c-1.625,8.564-0.059,13.718,2.196,15.021
			c0.556,0.322,1.288,0.498,2.181,0.498c2.914,0,7.496-1.845,12.795-6.472c5.081-4.436,10.395-11.346,15.358-19.939
			c4.655-8.066,7.964-16.178,9.34-22.839c1.919-9.326,0.265-15.036-2.093-16.397c-1.2-0.688-3.147-0.6-5.49,0.263
			c-2.709,0.996-5.769,2.943-8.843,5.622c-5.52,4.802-11.156,11.946-15.87,20.115L28.138,63.756z"/>
	</g>
	<g>
		<path d="M57.814,107.853c-3.982,0-9.032-2.401-14.304-6.939c-5.885-5.065-11.873-12.605-16.88-21.258l0,0
			c-4.919-8.491-8.433-17.319-9.911-24.889c-0.864-4.421-1.025-8.477-0.469-11.741c0.615-3.558,2.064-6.09,4.216-7.335
			c4.363-2.533,11.786,0.073,19.34,6.793c5.358,4.758,10.98,11.991,15.826,20.365c5.168,8.93,8.639,17.349,10.015,24.346
			c0.893,4.539,1.039,8.755,0.41,12.181c-0.674,3.646-2.196,6.237-4.393,7.512C60.566,107.53,59.263,107.853,57.814,107.853z
			 M29.676,77.898c4.743,8.198,10.629,15.621,16.134,20.35c6.603,5.681,11.844,6.91,14.113,5.593
			c2.356-1.361,4.085-6.939,2.299-15.958c-1.318-6.617-4.642-14.669-9.619-23.263c-4.671-8.067-10.044-14.992-15.124-19.501
			c-7.115-6.325-12.883-7.745-15.24-6.383c-1.201,0.688-2.094,2.431-2.518,4.89c-0.483,2.84-0.337,6.471,0.454,10.468
			C21.579,61.282,24.947,69.729,29.676,77.898L29.676,77.898z"/>
	</g>
</g>
<g id="Layer_3_3_">
	<g>
		<path fill="#83CD29" d="M322.206,129.024c-0.211-0.163-0.451-0.278-0.712-0.315l-8.334-1.118c-0.538-0.073-1.078,0.157-1.412,0.59
			l-5.127,6.646c-0.332,0.431-0.418,1.013-0.212,1.516l0.835,2.03c0.453,0.925,0.729,1.127,1.061,1.384
			c1.083,0.835,2.208,0.654,3.089-0.486l5.061-6.561c0.071-0.093,0.042-0.221-0.048-0.291l-0.723-0.557
			c-0.092-0.071-0.222-0.065-0.294,0.027l-5.061,6.56c-0.39,0.506-1.31,0.607-1.836-0.479l-0.858-2.127
			c-0.033-0.072-0.033-0.159,0.016-0.223l5.127-6.646c0.048-0.063,0.14-0.096,0.22-0.083l8.312,1.12
			c0.077,0.011,0.143,0.061,0.172,0.133l3.193,7.755c0.029,0.074,0.024,0.169-0.025,0.234l-5.127,6.645
			c-0.049,0.063-0.13,0.104-0.207,0.094l-8.324-1.13c-0.072-0.009-0.141-0.062-0.172-0.133l-0.801-2.023
			c-0.026-0.06-0.082-0.103-0.146-0.113c-0.588-0.084-0.686-0.116-1.171-0.279c-0.121-0.039-0.304-0.098-0.142,0.283l1.057,2.631
			c0.102,0.246,0.267,0.459,0.477,0.621c0.211,0.164,0.459,0.269,0.722,0.304l8.324,1.13c0.54,0.071,1.079-0.158,1.413-0.59
			l5.126-6.646c0.333-0.432,0.419-1.013,0.212-1.516l-3.196-7.776C322.592,129.392,322.418,129.188,322.206,129.024L322.206,129.024
			z"/>
		<path fill="#83CD29" d="M320.086,134.963c-1.643-1.267-3.159-1.322-4.056-0.16c-0.972,1.26-0.269,2.355,1.186,3.727
			c1.743,1.638,1.677,2.028,1.391,2.399c-0.496,0.644-1.222,0.521-2.435-0.414c-1.522-1.175-1.564-1.813-1.092-2.657
			c0.05-0.092,0.038-0.206-0.046-0.271l-0.747-0.576c-0.091-0.07-0.232-0.052-0.303,0.039c-0.749,0.972-1.105,2.525,1.414,4.469
			c1.824,1.408,3.429,1.503,4.396,0.248c0.959-1.243,0.367-2.232-1.223-3.832c-1.605-1.615-1.686-1.862-1.362-2.281
			c0.266-0.346,0.768-0.696,2.092,0.325c1.183,0.913,1.423,1.505,0.986,2.441c-0.042,0.086-0.022,0.197,0.055,0.257l0.747,0.576
			c0.047,0.036,0.113,0.041,0.17,0.032c0.059-0.012,0.111-0.032,0.145-0.084C322.347,137.739,321.93,136.387,320.086,134.963z"/>
	</g>
	<path fill="#404137" d="M295.038,94.165c-0.063-0.049-0.14-0.081-0.222-0.093c-0.164-0.021-0.327,0.046-0.428,0.177l-7.224,9.363
		c-0.071,0.092-0.178,0.141-0.292,0.126c-0.116-0.016-0.214-0.091-0.258-0.198l-0.851-2.062c-0.126-0.307-0.405-0.522-0.734-0.566
		l-8.826-1.187c-0.33-0.045-0.664,0.102-0.868,0.366l-5.438,7.048c-0.204,0.265-0.251,0.613-0.124,0.921l3.388,8.235
		c0.126,0.308,0.405,0.523,0.734,0.566l8.827,1.188c0.329,0.045,0.655-0.091,0.858-0.354l13.559-17.575
		c0.207-0.269,0.253-0.629,0.121-0.941l-2.068-4.837C295.161,94.268,295.101,94.213,295.038,94.165z M248.962,72.657
		c-0.12-0.085-0.245-0.149-0.397-0.17l-8.826-1.186c-0.328-0.045-0.656,0.09-0.858,0.353l-7.286,9.471
		c-0.102,0.131-0.128,0.306-0.063,0.46c0.062,0.154,0.202,0.263,0.367,0.283l5.229,0.714c0.335,0.041,0.666-0.081,0.869-0.343
		l3.409-4.419c0.203-0.264,0.528-0.397,0.859-0.353l2.231,0.295c0.161,0.021,0.313,0.085,0.441,0.186
		c0.127,0.097,0.231,0.228,0.293,0.381l0.852,2.083c0.128,0.307,0.08,0.658-0.123,0.92l-3.408,4.418
		c-0.204,0.264-0.236,0.619-0.111,0.929l2.017,4.876c0.062,0.155,0.202,0.263,0.367,0.283c0.165,0.021,0.328-0.045,0.43-0.177
		l7.311-9.452c0.204-0.262,0.251-0.612,0.123-0.92l-3.387-8.236c-0.058-0.141-0.151-0.246-0.266-0.341L248.962,72.657z
		 M303.775,115.079c-0.126-0.098-0.276-0.162-0.441-0.185l-8.826-1.186c-0.329-0.045-0.656,0.09-0.859,0.352l-5.438,7.051
		c-0.204,0.265-0.24,0.621-0.111,0.93l3.396,8.124c0.126,0.301,0.392,0.521,0.713,0.569l5.249,0.789
		c0.166,0.025,0.338-0.034,0.44-0.167c0.104-0.131,0.127-0.307,0.063-0.46l-3.426-8.265c-0.063-0.155-0.041-0.35,0.061-0.481
		l1.699-2.203c0.103-0.132,0.276-0.19,0.441-0.168l2.76,0.371c0.163,0.023,0.303,0.131,0.367,0.283l1.059,2.575
		c0.063,0.154,0.04,0.328-0.061,0.46l-1.342,1.738c-0.102,0.131-0.125,0.306-0.063,0.46c0.063,0.154,0.202,0.261,0.367,0.283
		l5.303,0.693c0.328,0.043,0.656-0.091,0.859-0.354l1.312-1.701c0.202-0.263,0.25-0.611,0.123-0.919l-3.351-8.209
		C304.007,115.311,303.906,115.18,303.775,115.079L303.775,115.079z M281.456,106.255c0.031,0.024,0.063,0.062,0.078,0.101
		l1.159,2.826c0.03,0.077,0.025,0.169-0.025,0.234l-1.869,2.424c-0.051,0.065-0.139,0.095-0.221,0.084l-3.028-0.403
		c-0.082-0.012-0.152-0.065-0.184-0.142l-1.158-2.826c-0.032-0.077-0.025-0.169,0.025-0.234l1.87-2.424
		c0.05-0.065,0.138-0.094,0.22-0.084l3.027,0.403C281.388,106.218,281.425,106.231,281.456,106.255L281.456,106.255L281.456,106.255
		z"/>
	<path fill="#83CD29" d="M267.27,86.859c-0.128-0.098-0.278-0.163-0.443-0.186l-8.816-1.198c-0.33-0.045-0.665,0.101-0.868,0.365
		l-5.438,7.049c-0.204,0.265-0.25,0.612-0.124,0.921l3.389,8.235c0.125,0.308,0.405,0.523,0.734,0.566l8.826,1.188
		c0.329,0.044,0.656-0.091,0.859-0.354l5.438-7.05c0.203-0.264,0.26-0.625,0.132-0.933l-3.396-8.224
		C267.501,87.09,267.399,86.958,267.27,86.859z M298.939,121.324c-0.023-0.019-0.052-0.04-0.083-0.044l-1.704-0.221
		c-0.063-0.01-0.128,0.016-0.168,0.066l-1.037,1.346c-0.04,0.051-0.046,0.12-0.022,0.179l0.655,1.58
		c0.025,0.059,0.072,0.096,0.135,0.104l1.695,0.232c0.063,0.01,0.127-0.016,0.167-0.065l1.039-1.347
		c0.038-0.051,0.046-0.119,0.021-0.178l-0.646-1.593C298.979,121.354,298.963,121.344,298.939,121.324L298.939,121.324z"/>
</g>
<g id="Layer_4_1_">
	<polygon fill="#BDBDBD" points="251.439,14.066 229.635,21.654 233.08,49.907 251.463,59.898 269.939,49.771 273.385,21.52 	"/>
	<polygon points="271.111,22.948 251.51,16.29 251.51,57.498 268.002,48.459 	"/>
	<polygon points="251.448,16.269 231.906,23.07 235.017,48.59 251.459,57.525 251.51,57.498 251.51,16.29 	"/>
	<polygon fill="#BDBDBD" points="251.51,18.228 251.51,28.132 260.445,47.398 265.038,47.398 	"/>
	<polygon fill="#EEEEEE" points="237.981,47.398 242.574,47.398 251.51,28.132 251.51,18.228 	"/>
	<rect x="251.51" y="36.982" fill="#BDBDBD" width="6.25" height="4.166"/>
	<rect x="245.26" y="36.982" fill="#EEEEEE" width="6.25" height="4.166"/>
</g>
<script  type="text/javascript">
		<![CDATA[

	var s = Snap("#eli");
	var s2 = Snap("#eli2");
	var animating = false;
	var matrix = s2.transform().localMatrix;
	console.log(s.attr("fill"))
	console.log(s2)
	console.log(matrix)
	console.log(matrix.toTransformString())
	var tMatrix = matrix.toTransformString()
	/*s.attr({
    fill: "#fc0",
    stroke: "#000",
    strokeWidth: 8, // CamelCase...
    "fill-opacity": 0.5, // or dash-separated names
    width: "*=2" // prefixed values
});*/

var anim1 = function() {
    
	s2.animate({transform:"t293.2798,62.8417, r94.905,0,0"}, 200,anim3)
	
}
var anim3 = function(){
s.animate({ry: 1}, 200)
s2.animate({rx: 1}, 200,anim2)
console.log("HERE")
}

var anim2 = function() {
    s.animate({ry: 15.852}, 200,function(){
	
	setTimeout(function(){
	anim1()
	},5000)

	})

	s2.animate({rx: 15.852}, 200,	function(){
		
	/*setTimeout(function(){
	anim1()
	},5000)*/
	}
	)

}

if(animating == false){
anim1()
console.log(s.attr("rx"))
}


;


			]]>
	</script>
</svg>
